<svg clip-rule="evenodd" fill-rule="evenodd" height="8.4666mm" image-rendering="optimizeQuality" shape-rendering="geometricPrecision" text-rendering="geometricPrecision" viewBox="0 0 846.66 846.66" width="8.4666mm" xmlns="http://www.w3.org/2000/svg"><path d="m288.67 387.63c0 27.16-41.31 27.16-41.31 0v-154.02c0-34.27 27.96-62.22 62.22-62.22h248.41v-54.81c0-11.46-9.46-20.91-20.91-20.91h-464.17c-11.46 0-20.92 9.45-20.92 20.91v254.02c0 11.46 9.46 20.92 20.92 20.92h62.35c11.41 0 20.65 9.25 20.65 20.65v161.59l64.53-118.39c12.94-23.77 49.08-4.09 36.14 19.68l-102.39 187.86c-8.86 20.27-39.58 14.08-39.58-8.26v-221.83h-41.7c-34.26 0-62.22-27.95-62.22-62.22v-254.02c0-34.27 27.96-62.22 62.22-62.22h464.17c34.26 0 62.22 27.96 62.22 62.22v54.81h174.45c34.26 0 62.22 27.95 62.22 62.22v254.03c0 34.26-27.96 62.21-62.22 62.21h-41.7v221.82c0 19.99-25.55 28.09-37.26 12.29l-198.43-234.11h-111.29c-27.16 0-27.16-41.3 0-41.3l120.8.05c5.85 0 11.66 2.48 15.73 7.29l169.15 199.55v-186.24c0-11.4 9.24-20.65 20.65-20.65h62.35c11.46 0 20.92-9.45 20.92-20.91v-254.03c0-11.46-9.46-20.91-20.92-20.91h-464.17c-11.46 0-20.91 9.45-20.91 20.91zm152.54-58.32c-27.16 0-27.16-41.3 0-41.3h200.91c27.16 0 27.16 41.3 0 41.3zm0 87.76c-27.16 0-27.16-41.31 0-41.31h200.91c27.16 0 27.16 41.31 0 41.31z" fill-rule="nonzero"/></svg>