<svg enable-background="new 0 0 24 24" height="24" viewBox="0 0 24 24" width="24" xmlns="http://www.w3.org/2000/svg"><g fill="none"><g stroke="#000" stroke-linejoin="round" stroke-miterlimit="10"><g stroke-linecap="round"><path d="m23.5 18.5c0 .552-.448 1-1 1h-21c-.552 0-1-.448-1-1s.448-1 1-1h21c.552 0 1 .448 1 1z"/><path d="m19.5 17.5v2"/><path d="m6.5 14-1-1"/><path d="m13.5 14 1-1"/><path d="m6 15.5h-1.5"/><path d="m15.5 15.5h-1.5"/></g><path d="m13.298 9.907c1 .787 2.54.821 3.547-.057"/><path d="m19 .512-4.5 1-5.572 11.381c-.282.577-.267 1.063.168 1.404.434.342 1.063.267 1.404-.167l4.725-7.13 1.965 1.546-.657 2.27c-.052.353.063.711.312.967s.603.382.958.339c.385-.046.72-.283.892-.63l1.945-5.611 2.86-.775v-4.594z" stroke-linecap="round"/></g><path d="m0 0h24v24h-24z"/></g></svg>