<svg viewBox="0 0 96 96" xmlns="http://www.w3.org/2000/svg"><g fill="none" stroke="#281a3b" stroke-linecap="round" stroke-linejoin="round" stroke-width="4"><path d="m21 56v20.86a17.07 17.07 0 0 0 17 17.14 17.07 17.07 0 0 0 17-17.14v-22.86"/><circle cx="21" cy="48" r="8"/><circle cx="21" cy="48" r="8"/><path d="m71.5 6 5-2-5-2z"/><path d="m36 4h-4.09c-2.91 0-5.24 3-4.91 6.35 2.25 20.19 11.69 43.65 28 43.65s25.75-23.46 28-43.65c.33-3.35-2-6.35-4.91-6.35h-4.09"/><path d="m38.5 6-5-2 5-2z"/><circle cx="21" cy="48" r="2"/></g></svg>