<svg enable-background="new 0 0 64 64" height="64" viewBox="0 0 64 64" width="64" xmlns="http://www.w3.org/2000/svg"><path d="m51.063.25h-38.125c-2.481 0-4.5 2.019-4.5 4.5v54.5c0 2.481 2.019 4.5 4.5 4.5h38.125c2.481 0 4.5-2.019 4.5-4.5v-54.5c0-2.481-2.019-4.5-4.5-4.5zm1.5 59c0 .827-.673 1.5-1.5 1.5h-38.125c-.827 0-1.5-.673-1.5-1.5v-54.5c0-.827.673-1.5 1.5-1.5h38.125c.827 0 1.5.673 1.5 1.5z"/><path d="m17.125 10.75h28.625c.828 0 1.5-.671 1.5-1.5s-.672-1.5-1.5-1.5h-28.625c-.829 0-1.5.671-1.5 1.5s.671 1.5 1.5 1.5z"/><path d="m17.125 19.75h15.625c.828 0 1.5-.671 1.5-1.5s-.672-1.5-1.5-1.5h-15.625c-.829 0-1.5.671-1.5 1.5s.671 1.5 1.5 1.5z"/><path d="m17.125 28.75h23.125c.828 0 1.5-.671 1.5-1.5s-.672-1.5-1.5-1.5h-23.125c-.829 0-1.5.671-1.5 1.5s.671 1.5 1.5 1.5z"/><path d="m30.188 36.25c0-.828-.671-1.5-1.5-1.5h-11.563c-.829 0-1.5.672-1.5 1.5s.671 1.5 1.5 1.5h11.563c.828 0 1.5-.672 1.5-1.5z"/><path d="m47.384 50.445-3.709 3.753-3.854-8.623c-.014-.03-.033-.057-.049-.086-.025-.048-.051-.097-.082-.142-.029-.045-.063-.084-.097-.124-.028-.033-.056-.067-.087-.099-.046-.045-.095-.084-.146-.123-.021-.016-.038-.035-.061-.051-.007-.005-.015-.008-.022-.012-.052-.034-.106-.063-.162-.09-.035-.018-.068-.037-.104-.052-.047-.02-.097-.031-.146-.045-.045-.014-.089-.029-.135-.038-.047-.009-.094-.01-.141-.015-.049-.005-.098-.012-.146-.011-.046 0-.092.007-.137.012-.052.005-.103.008-.153.019-.04.008-.08.022-.12.034-.056.017-.111.032-.165.055-.01.004-.02.006-.029.01-.029.014-.054.032-.082.047-.051.026-.101.053-.148.085-.04.027-.076.059-.112.09-.038.031-.075.061-.11.097-.04.041-.075.085-.11.131-.02.024-.043.045-.061.071l-4.716 6.868-1.161-1.191c-.007-.008-.018-.01-.025-.018-.052-.05-.102-.102-.162-.146-.092-.067-.19-.12-.291-.164-.016-.007-.032-.01-.048-.016-.167-.065-.34-.104-.515-.107-.015 0-.029.003-.044.003-.178.001-.354.031-.521.094-.014.006-.026.014-.04.02-.167.068-.324.166-.46.297-.005.004-.011.005-.016.01-.009.009-.012.021-.021.03-.049.051-.099.099-.141.157l-2.75 3.75c-.49.668-.346 1.606.322 2.097.268.195.578.29.886.29.461 0 .917-.212 1.21-.613l1.703-2.322 1.193 1.225c.001.001.001.001.002.002l.005.006c.002.002.004.002.006.004.066.067.139.13.219.186.06.041.126.061.189.092.049.024.095.052.146.07.167.062.339.102.512.102h.001.002c.168-.001.332-.039.491-.094.035-.013.069-.024.104-.039.155-.067.299-.158.426-.277.007-.007.018-.009.024-.016.016-.015.021-.035.035-.051.053-.057.109-.109.154-.175l4.236-6.17 3.641 8.144v.001l.018.039c.072.161.174.297.289.417.011.012.014.027.025.038.023.022.055.03.079.052.104.09.216.164.339.223.046.021.089.045.137.062.159.057.325.096.497.096.001 0 .002.001.003.001h.001c.176 0 .354-.038.526-.104.02-.007.038-.01.057-.018.01-.005.019-.006.028-.01.166-.074.308-.178.431-.298.007-.007.018-.009.024-.017l5.25-5.313c.582-.59.576-1.539-.013-2.122-.588-.58-1.536-.577-2.119.012z"/></svg>